# xmcd
#
# Track frame offsets:
#	150
#	10125
#	21565
#	36295
#	54405
#	65545
#	76978
#	88708
#	101278
#	112390
#	124945
#	136620
#	147740
#	158618
#	171945
#	183368
#	194515
#	206615
#	221918
#	232298
#	246445
#	262293
#	276703
#	287938
#	298583
#
# Disc length: 4149
#
# Revision: 3
# Processed by: cddbd v1.5.1PL0 Copyright (c) Steve Scherf et al.
# Submitted via: DiscPlay 4.0.4
# Normalized: r1:TDELIM( - ),TSWAP
#
DISCID=9b103319
DTITLE=Various Artist - Every Day I Have The Blues
DYEAR=1900
DGENRE=
TTITLE0=John Lee Hooker - Dimples
TTITLE1=John Lee  Hooker - Bookie Chillen
TTITLE2=Muddy Waters - Baby, Please Don't Go
TTITLE3=BB King - Every Day I Have The Blues
TTITLE4=John Lee Hooker - Boom Boom
TTITLE5=Muddy Waters - Sittin' Here Drinkin'
TTITLE6=Howlin' Wolf - Howlin' for My Baby
TTITLE7=Billie Holiday - God Bless The Child
TTITLE8=Howlin' Wolf - Little Red Rooster
TTITLE9=Howlin' Wolf - Spoonful
TTITLE10=BB King - My Baby
TTITLE11=BB King - Catfish Blues
TTITLE12=Howlin' Wolf - Wang Dang Doodle
TTITLE13=Elmore James - Dust My Broom
TTITLE14=BB King - How Blue Can You Get
TTITLE15=Billie Holiday - I Love You Porgy
TTITLE16=John Lee Hooker - I'm In The Mood
TTITLE17=Howlin' Wolf - Goin' Down Steady
TTITLE18=Ray Charles - Hey Now
TTITLE19=Ray Charles - Walkin' and Talkin'
TTITLE20=Howlin' Wolf - Killing Floor
TTITLE21=Leadbelly - In New Orleans
TTITLE22=Elmore James - Look On Wonder Wall
TTITLE23=Ray Charles - I Wonder Who's Kissing Her Now
TTITLE24=Muddy Waters - Mean Mistreater
EXTD=
EXTT0=John Lee Hooker\n
EXTT1=
EXTT2=
EXTT3=
EXTT4=
EXTT5=
EXTT6=
EXTT7=
EXTT8=
EXTT9=
EXTT10=
EXTT11=
EXTT12=
EXTT13=
EXTT14=
EXTT15=
EXTT16=
EXTT17=
EXTT18=
EXTT19=
EXTT20=
EXTT21=
EXTT22=
EXTT23=
EXTT24=
PLAYORDER=
